<svg xmlns="http://www.w3.org/2000/svg" xmlns:xlink="http://www.w3.org/1999/xlink" width="200" zoomAndPan="magnify" viewBox="0 0 150 37.5" height="50" preserveAspectRatio="xMidYMid meet" version="1.0"><defs><g/></defs><g fill="#ffffff" fill-opacity="1"><g transform="translate(2.832494, 22.130176)"><g><path d="M 4.625 0 L 0.4375 0 L 0.4375 -10.96875 L 4.625 -10.96875 L 4.09375 -6.671875 L 7.09375 -6.671875 L 6.5625 -10.96875 L 10.71875 -10.96875 L 10.71875 0 L 6.5625 0 L 7.09375 -4.40625 L 4.09375 -4.40625 Z M 4.625 0 "/></g></g></g><g fill="#ffffff" fill-opacity="1"><g transform="translate(13.989478, 22.130176)"><g><path d="M 9.546875 -6.5625 L 3.984375 -6.71875 L 3.984375 -6.078125 L 8.09375 -6.234375 L 8.09375 -4.828125 L 3.984375 -4.984375 L 3.984375 -4.3125 L 9.890625 -4.59375 L 9.890625 0 L 0.4375 0 L 0.4375 -10.96875 L 9.546875 -10.96875 Z M 9.546875 -6.5625 "/></g></g></g><g fill="#ffffff" fill-opacity="1"><g transform="translate(24.174926, 22.130176)"><g><path d="M 11.265625 0 L 7.9375 0 L 4.296875 -6.109375 L 4.09375 -6.046875 L 5.09375 0 L 0.4375 0 L 0.4375 -10.96875 L 3.875 -10.96875 L 7.390625 -6.109375 L 7.625 -6.171875 L 6.8125 -10.96875 L 11.265625 -10.96875 Z M 11.265625 0 "/></g></g></g><g fill="#ffffff" fill-opacity="1"><g transform="translate(35.880357, 22.130176)"><g><path d="M 5.125 -4.296875 L 4.015625 -4.296875 L 4.4375 0 L 0.4375 0 L 0.4375 -10.96875 L 6.109375 -10.96875 C 7.003906 -10.957031 7.800781 -10.847656 8.5 -10.640625 C 9.195312 -10.429688 9.738281 -10.09375 10.125 -9.625 C 10.519531 -9.15625 10.71875 -8.507812 10.71875 -7.6875 C 10.71875 -6.863281 10.347656 -6.191406 9.609375 -5.671875 C 8.878906 -5.160156 7.765625 -4.90625 6.265625 -4.90625 L 6.265625 -4.71875 L 7.234375 -4.71875 C 8.097656 -4.71875 8.804688 -4.519531 9.359375 -4.125 C 9.910156 -3.726562 10.304688 -3.175781 10.546875 -2.46875 C 10.785156 -1.757812 10.851562 -0.9375 10.75 0 L 6.25 0 C 6.375 -0.519531 6.445312 -1.03125 6.46875 -1.53125 C 6.5 -2.039062 6.472656 -2.503906 6.390625 -2.921875 C 6.316406 -3.347656 6.175781 -3.679688 5.96875 -3.921875 C 5.757812 -4.171875 5.476562 -4.296875 5.125 -4.296875 Z M 5.890625 -6.5 L 4.015625 -6.5 L 4.015625 -5.421875 L 5.875 -5.421875 C 6.238281 -5.421875 6.53125 -5.460938 6.75 -5.546875 C 6.96875 -5.640625 7.078125 -5.773438 7.078125 -5.953125 C 7.078125 -6.160156 6.960938 -6.300781 6.734375 -6.375 C 6.515625 -6.457031 6.234375 -6.5 5.890625 -6.5 Z M 5.890625 -6.5 "/></g></g></g><g fill="#ffffff" fill-opacity="1"><g transform="translate(46.911983, 22.130176)"><g><path d="M 0.3125 -6.203125 L 0.3125 -10.96875 L 9.03125 -10.96875 L 9.03125 -6.203125 L 6.25 -6.421875 L 6.296875 -4.546875 L 9.03125 -4.765625 L 9.03125 0 L 0.3125 0 L 0.3125 -4.765625 L 3.046875 -4.546875 L 3.09375 -6.421875 Z M 0.3125 -6.203125 "/></g></g></g><g fill="#ffffff" fill-opacity="1"><g transform="translate(56.251253, 22.130176)"><g><path d="M 4.109375 -3.171875 L 4.578125 0 L 0.4375 0 L 0.4375 -10.96875 L 4.3125 -10.96875 L 3.9375 -5.828125 L 4.140625 -5.828125 L 5.1875 -10.96875 L 10.765625 -10.96875 L 5.09375 -5.59375 L 5.265625 -5.390625 C 5.398438 -5.546875 5.5625 -5.71875 5.75 -5.90625 C 5.9375 -6.101562 6.15625 -6.269531 6.40625 -6.40625 C 6.664062 -6.550781 6.957031 -6.625 7.28125 -6.625 C 8.144531 -6.625 8.847656 -6.34375 9.390625 -5.78125 C 9.929688 -5.226562 10.304688 -4.453125 10.515625 -3.453125 C 10.722656 -2.453125 10.753906 -1.300781 10.609375 0 L 6.078125 0 C 6.210938 -0.53125 6.304688 -1.082031 6.359375 -1.65625 C 6.421875 -2.226562 6.421875 -2.765625 6.359375 -3.265625 C 6.304688 -3.765625 6.179688 -4.164062 5.984375 -4.46875 C 5.785156 -4.769531 5.5 -4.921875 5.125 -4.921875 C 4.707031 -4.921875 4.410156 -4.75 4.234375 -4.40625 C 4.066406 -4.070312 4.023438 -3.660156 4.109375 -3.171875 Z M 4.109375 -3.171875 "/></g></g></g><g fill="#ffffff" fill-opacity="1"><g transform="translate(67.204525, 22.130176)"><g/></g></g><g fill="#ffffff" fill-opacity="1"><g transform="translate(70.589224, 22.130176)"><g><path d="M 5.171875 0 L 0.390625 0 L 1.265625 -10.96875 L 5.765625 -10.96875 L 6.671875 -4.828125 L 6.90625 -4.828125 L 7.84375 -10.96875 L 12.3125 -10.96875 L 13.21875 0 L 8.421875 0 L 9.21875 -6.640625 L 8.984375 -6.671875 L 7.578125 -1.328125 L 6 -1.328125 L 4.625 -6.671875 L 4.375 -6.640625 Z M 5.171875 0 "/></g></g></g><g fill="#ffffff" fill-opacity="1"><g transform="translate(84.190722, 22.130176)"><g><path d="M 5.046875 -2.25 L 4.75 0 L -0.1875 0 L 3.546875 -10.96875 L 8 -10.96875 L 11.71875 0 L 6.8125 0 L 6.515625 -2.25 Z M 5.90625 -6.84375 L 5.640625 -6.84375 L 5.25 -3.453125 L 6.28125 -3.453125 Z M 5.90625 -6.84375 "/></g></g></g><g fill="#ffffff" fill-opacity="1"><g transform="translate(95.723791, 22.130176)"><g><path d="M 5.125 -4.296875 L 4.015625 -4.296875 L 4.4375 0 L 0.4375 0 L 0.4375 -10.96875 L 6.109375 -10.96875 C 7.003906 -10.957031 7.800781 -10.847656 8.5 -10.640625 C 9.195312 -10.429688 9.738281 -10.09375 10.125 -9.625 C 10.519531 -9.15625 10.71875 -8.507812 10.71875 -7.6875 C 10.71875 -6.863281 10.347656 -6.191406 9.609375 -5.671875 C 8.878906 -5.160156 7.765625 -4.90625 6.265625 -4.90625 L 6.265625 -4.71875 L 7.234375 -4.71875 C 8.097656 -4.71875 8.804688 -4.519531 9.359375 -4.125 C 9.910156 -3.726562 10.304688 -3.175781 10.546875 -2.46875 C 10.785156 -1.757812 10.851562 -0.9375 10.75 0 L 6.25 0 C 6.375 -0.519531 6.445312 -1.03125 6.46875 -1.53125 C 6.5 -2.039062 6.472656 -2.503906 6.390625 -2.921875 C 6.316406 -3.347656 6.175781 -3.679688 5.96875 -3.921875 C 5.757812 -4.171875 5.476562 -4.296875 5.125 -4.296875 Z M 5.890625 -6.5 L 4.015625 -6.5 L 4.015625 -5.421875 L 5.875 -5.421875 C 6.238281 -5.421875 6.53125 -5.460938 6.75 -5.546875 C 6.96875 -5.640625 7.078125 -5.773438 7.078125 -5.953125 C 7.078125 -6.160156 6.960938 -6.300781 6.734375 -6.375 C 6.515625 -6.457031 6.234375 -6.5 5.890625 -6.5 Z M 5.890625 -6.5 "/></g></g></g><g fill="#ffffff" fill-opacity="1"><g transform="translate(106.67704, 22.130176)"><g><path d="M 9.765625 -10.96875 L 9.8125 -6.125 L 6.390625 -6.28125 L 7.140625 0 L 2.953125 0 L 3.6875 -6.28125 L 0.28125 -6.125 L 0.3125 -10.96875 Z M 9.765625 -10.96875 "/></g></g></g><g fill="#ffffff" fill-opacity="1"><g transform="translate(116.76847, 22.130176)"><g><path d="M 0.3125 -6.203125 L 0.3125 -10.96875 L 9.03125 -10.96875 L 9.03125 -6.203125 L 6.25 -6.421875 L 6.296875 -4.546875 L 9.03125 -4.765625 L 9.03125 0 L 0.3125 0 L 0.3125 -4.765625 L 3.046875 -4.546875 L 3.09375 -6.421875 Z M 0.3125 -6.203125 "/></g></g></g><g fill="#ffffff" fill-opacity="1"><g transform="translate(126.107741, 22.130176)"><g><path d="M 11.265625 0 L 7.9375 0 L 4.296875 -6.109375 L 4.09375 -6.046875 L 5.09375 0 L 0.4375 0 L 0.4375 -10.96875 L 3.875 -10.96875 L 7.390625 -6.109375 L 7.625 -6.171875 L 6.8125 -10.96875 L 11.265625 -10.96875 Z M 11.265625 0 "/></g></g></g><g fill="#ffffff" fill-opacity="1"><g transform="translate(137.813171, 22.130176)"><g><path d="M 0.3125 -6.203125 L 0.3125 -10.96875 L 9.03125 -10.96875 L 9.03125 -6.203125 L 6.25 -6.421875 L 6.296875 -4.546875 L 9.03125 -4.765625 L 9.03125 0 L 0.3125 0 L 0.3125 -4.765625 L 3.046875 -4.546875 L 3.09375 -6.421875 Z M 0.3125 -6.203125 "/></g></g></g></svg>